<svg viewBox="0 0 512 512" xmlns="http://www.w3.org/2000/svg" width="512" height="512">
  <rect width="512" height="512" fill="#091826"/>
  <path d="M80.00,30.00 L88.04,60.60 L115.36,44.64 L99.40,71.96 L130.00,80.00 L99.40,88.04 L115.36,115.36 L88.04,99.40 L80.00,130.00 L71.96,99.40 L44.64,115.36 L60.60,88.04 L30.00,80.00 L60.60,71.96 L44.64,44.64 L71.96,60.60 Z" fill="#d4af37" fill-opacity="0.72"/><path d="M106.4,9.3 L113.4,16.3 L106.4,23.3 L99.4,16.3 Z" fill="#d4af37" fill-opacity="0.396"/><path d="M143.7,46.6 L150.7,53.6 L143.7,60.6 L136.7,53.6 Z" fill="#d4af37" fill-opacity="0.396"/><path d="M143.7,99.4 L150.7,106.4 L143.7,113.4 L136.7,106.4 Z" fill="#d4af37" fill-opacity="0.396"/><path d="M106.4,136.7 L113.4,143.7 L106.4,150.7 L99.4,143.7 Z" fill="#d4af37" fill-opacity="0.396"/><path d="M53.6,136.7 L60.6,143.7 L53.6,150.7 L46.6,143.7 Z" fill="#d4af37" fill-opacity="0.396"/><path d="M16.3,99.4 L23.3,106.4 L16.3,113.4 L9.3,106.4 Z" fill="#d4af37" fill-opacity="0.396"/><path d="M16.3,46.6 L23.3,53.6 L16.3,60.6 L9.3,53.6 Z" fill="#d4af37" fill-opacity="0.396"/><path d="M53.6,9.3 L60.6,16.3 L53.6,23.3 L46.6,16.3 Z" fill="#d4af37" fill-opacity="0.396"/><line x1="80.0" y1="29.0" x2="80.0" y2="16.0" stroke="#d4af37" stroke-width="0.8" stroke-opacity="0.288"/><line x1="131.0" y1="80.0" x2="144.0" y2="80.0" stroke="#d4af37" stroke-width="0.8" stroke-opacity="0.288"/><line x1="80.0" y1="131.0" x2="80.0" y2="144.0" stroke="#d4af37" stroke-width="0.8" stroke-opacity="0.288"/><line x1="29.0" y1="80.0" x2="16.0" y2="80.0" stroke="#d4af37" stroke-width="0.8" stroke-opacity="0.288"/><path d="M432.00,30.00 L440.04,60.60 L467.36,44.64 L451.40,71.96 L482.00,80.00 L451.40,88.04 L467.36,115.36 L440.04,99.40 L432.00,130.00 L423.96,99.40 L396.64,115.36 L412.60,88.04 L382.00,80.00 L412.60,71.96 L396.64,44.64 L423.96,60.60 Z" fill="#d4af37" fill-opacity="0.72"/><path d="M458.4,9.3 L465.4,16.3 L458.4,23.3 L451.4,16.3 Z" fill="#d4af37" fill-opacity="0.396"/><path d="M495.7,46.6 L502.7,53.6 L495.7,60.6 L488.7,53.6 Z" fill="#d4af37" fill-opacity="0.396"/><path d="M495.7,99.4 L502.7,106.4 L495.7,113.4 L488.7,106.4 Z" fill="#d4af37" fill-opacity="0.396"/><path d="M458.4,136.7 L465.4,143.7 L458.4,150.7 L451.4,143.7 Z" fill="#d4af37" fill-opacity="0.396"/><path d="M405.6,136.7 L412.6,143.7 L405.6,150.7 L398.6,143.7 Z" fill="#d4af37" fill-opacity="0.396"/><path d="M368.3,99.4 L375.3,106.4 L368.3,113.4 L361.3,106.4 Z" fill="#d4af37" fill-opacity="0.396"/><path d="M368.3,46.6 L375.3,53.6 L368.3,60.6 L361.3,53.6 Z" fill="#d4af37" fill-opacity="0.396"/><path d="M405.6,9.3 L412.6,16.3 L405.6,23.3 L398.6,16.3 Z" fill="#d4af37" fill-opacity="0.396"/><line x1="432.0" y1="29.0" x2="432.0" y2="16.0" stroke="#d4af37" stroke-width="0.8" stroke-opacity="0.288"/><line x1="483.0" y1="80.0" x2="496.0" y2="80.0" stroke="#d4af37" stroke-width="0.8" stroke-opacity="0.288"/><line x1="432.0" y1="131.0" x2="432.0" y2="144.0" stroke="#d4af37" stroke-width="0.8" stroke-opacity="0.288"/><line x1="381.0" y1="80.0" x2="368.0" y2="80.0" stroke="#d4af37" stroke-width="0.8" stroke-opacity="0.288"/><path d="M80.00,382.00 L88.04,412.60 L115.36,396.64 L99.40,423.96 L130.00,432.00 L99.40,440.04 L115.36,467.36 L88.04,451.40 L80.00,482.00 L71.96,451.40 L44.64,467.36 L60.60,440.04 L30.00,432.00 L60.60,423.96 L44.64,396.64 L71.96,412.60 Z" fill="#d4af37" fill-opacity="0.72"/><path d="M106.4,361.3 L113.4,368.3 L106.4,375.3 L99.4,368.3 Z" fill="#d4af37" fill-opacity="0.396"/><path d="M143.7,398.6 L150.7,405.6 L143.7,412.6 L136.7,405.6 Z" fill="#d4af37" fill-opacity="0.396"/><path d="M143.7,451.4 L150.7,458.4 L143.7,465.4 L136.7,458.4 Z" fill="#d4af37" fill-opacity="0.396"/><path d="M106.4,488.7 L113.4,495.7 L106.4,502.7 L99.4,495.7 Z" fill="#d4af37" fill-opacity="0.396"/><path d="M53.6,488.7 L60.6,495.7 L53.6,502.7 L46.6,495.7 Z" fill="#d4af37" fill-opacity="0.396"/><path d="M16.3,451.4 L23.3,458.4 L16.3,465.4 L9.3,458.4 Z" fill="#d4af37" fill-opacity="0.396"/><path d="M16.3,398.6 L23.3,405.6 L16.3,412.6 L9.3,405.6 Z" fill="#d4af37" fill-opacity="0.396"/><path d="M53.6,361.3 L60.6,368.3 L53.6,375.3 L46.6,368.3 Z" fill="#d4af37" fill-opacity="0.396"/><line x1="80.0" y1="381.0" x2="80.0" y2="368.0" stroke="#d4af37" stroke-width="0.8" stroke-opacity="0.288"/><line x1="131.0" y1="432.0" x2="144.0" y2="432.0" stroke="#d4af37" stroke-width="0.8" stroke-opacity="0.288"/><line x1="80.0" y1="483.0" x2="80.0" y2="496.0" stroke="#d4af37" stroke-width="0.8" stroke-opacity="0.288"/><line x1="29.0" y1="432.0" x2="16.0" y2="432.0" stroke="#d4af37" stroke-width="0.8" stroke-opacity="0.288"/><path d="M432.00,382.00 L440.04,412.60 L467.36,396.64 L451.40,423.96 L482.00,432.00 L451.40,440.04 L467.36,467.36 L440.04,451.40 L432.00,482.00 L423.96,451.40 L396.64,467.36 L412.60,440.04 L382.00,432.00 L412.60,423.96 L396.64,396.64 L423.96,412.60 Z" fill="#d4af37" fill-opacity="0.72"/><path d="M458.4,361.3 L465.4,368.3 L458.4,375.3 L451.4,368.3 Z" fill="#d4af37" fill-opacity="0.396"/><path d="M495.7,398.6 L502.7,405.6 L495.7,412.6 L488.7,405.6 Z" fill="#d4af37" fill-opacity="0.396"/><path d="M495.7,451.4 L502.7,458.4 L495.7,465.4 L488.7,458.4 Z" fill="#d4af37" fill-opacity="0.396"/><path d="M458.4,488.7 L465.4,495.7 L458.4,502.7 L451.4,495.7 Z" fill="#d4af37" fill-opacity="0.396"/><path d="M405.6,488.7 L412.6,495.7 L405.6,502.7 L398.6,495.7 Z" fill="#d4af37" fill-opacity="0.396"/><path d="M368.3,451.4 L375.3,458.4 L368.3,465.4 L361.3,458.4 Z" fill="#d4af37" fill-opacity="0.396"/><path d="M368.3,398.6 L375.3,405.6 L368.3,412.6 L361.3,405.6 Z" fill="#d4af37" fill-opacity="0.396"/><path d="M405.6,361.3 L412.6,368.3 L405.6,375.3 L398.6,368.3 Z" fill="#d4af37" fill-opacity="0.396"/><line x1="432.0" y1="381.0" x2="432.0" y2="368.0" stroke="#d4af37" stroke-width="0.8" stroke-opacity="0.288"/><line x1="483.0" y1="432.0" x2="496.0" y2="432.0" stroke="#d4af37" stroke-width="0.8" stroke-opacity="0.288"/><line x1="432.0" y1="483.0" x2="432.0" y2="496.0" stroke="#d4af37" stroke-width="0.8" stroke-opacity="0.288"/><line x1="381.0" y1="432.0" x2="368.0" y2="432.0" stroke="#d4af37" stroke-width="0.8" stroke-opacity="0.288"/><path d="M256.00,26.00 L260.21,41.84 L274.38,33.62 L266.16,47.79 L282.00,52.00 L266.16,56.21 L274.38,70.38 L260.21,62.16 L256.00,78.00 L251.79,62.16 L237.62,70.38 L245.84,56.21 L230.00,52.00 L245.84,47.79 L237.62,33.62 L251.79,41.84 Z" fill="#d4af37" fill-opacity="0.38"/><path d="M269.7,15.2 L273.4,18.9 L269.7,22.5 L266.1,18.9 Z" fill="#d4af37" fill-opacity="0.20900000000000002"/><path d="M289.1,34.6 L292.8,38.3 L289.1,41.9 L285.5,38.3 Z" fill="#d4af37" fill-opacity="0.20900000000000002"/><path d="M289.1,62.1 L292.8,65.7 L289.1,69.4 L285.5,65.7 Z" fill="#d4af37" fill-opacity="0.20900000000000002"/><path d="M269.7,81.5 L273.4,85.1 L269.7,88.8 L266.1,85.1 Z" fill="#d4af37" fill-opacity="0.20900000000000002"/><path d="M242.3,81.5 L245.9,85.1 L242.3,88.8 L238.6,85.1 Z" fill="#d4af37" fill-opacity="0.20900000000000002"/><path d="M222.9,62.1 L226.5,65.7 L222.9,69.4 L219.2,65.7 Z" fill="#d4af37" fill-opacity="0.20900000000000002"/><path d="M222.9,34.6 L226.5,38.3 L222.9,41.9 L219.2,38.3 Z" fill="#d4af37" fill-opacity="0.20900000000000002"/><path d="M242.3,15.2 L245.9,18.9 L242.3,22.5 L238.6,18.9 Z" fill="#d4af37" fill-opacity="0.20900000000000002"/><line x1="256.0" y1="25.0" x2="256.0" y2="12.0" stroke="#d4af37" stroke-width="0.8" stroke-opacity="0.15200000000000002"/><line x1="283.0" y1="52.0" x2="296.0" y2="52.0" stroke="#d4af37" stroke-width="0.8" stroke-opacity="0.15200000000000002"/><line x1="256.0" y1="79.0" x2="256.0" y2="92.0" stroke="#d4af37" stroke-width="0.8" stroke-opacity="0.15200000000000002"/><line x1="229.0" y1="52.0" x2="216.0" y2="52.0" stroke="#d4af37" stroke-width="0.8" stroke-opacity="0.15200000000000002"/><path d="M460.00,230.00 L464.21,245.84 L478.38,237.62 L470.16,251.79 L486.00,256.00 L470.16,260.21 L478.38,274.38 L464.21,266.16 L460.00,282.00 L455.79,266.16 L441.62,274.38 L449.84,260.21 L434.00,256.00 L449.84,251.79 L441.62,237.62 L455.79,245.84 Z" fill="#d4af37" fill-opacity="0.38"/><path d="M473.7,219.2 L477.4,222.9 L473.7,226.5 L470.1,222.9 Z" fill="#d4af37" fill-opacity="0.20900000000000002"/><path d="M493.1,238.6 L496.8,242.3 L493.1,245.9 L489.5,242.3 Z" fill="#d4af37" fill-opacity="0.20900000000000002"/><path d="M493.1,266.1 L496.8,269.7 L493.1,273.4 L489.5,269.7 Z" fill="#d4af37" fill-opacity="0.20900000000000002"/><path d="M473.7,285.5 L477.4,289.1 L473.7,292.8 L470.1,289.1 Z" fill="#d4af37" fill-opacity="0.20900000000000002"/><path d="M446.3,285.5 L449.9,289.1 L446.3,292.8 L442.6,289.1 Z" fill="#d4af37" fill-opacity="0.20900000000000002"/><path d="M426.9,266.1 L430.5,269.7 L426.9,273.4 L423.2,269.7 Z" fill="#d4af37" fill-opacity="0.20900000000000002"/><path d="M426.9,238.6 L430.5,242.3 L426.9,245.9 L423.2,242.3 Z" fill="#d4af37" fill-opacity="0.20900000000000002"/><path d="M446.3,219.2 L449.9,222.9 L446.3,226.5 L442.6,222.9 Z" fill="#d4af37" fill-opacity="0.20900000000000002"/><line x1="460.0" y1="229.0" x2="460.0" y2="216.0" stroke="#d4af37" stroke-width="0.8" stroke-opacity="0.15200000000000002"/><line x1="487.0" y1="256.0" x2="500.0" y2="256.0" stroke="#d4af37" stroke-width="0.8" stroke-opacity="0.15200000000000002"/><line x1="460.0" y1="283.0" x2="460.0" y2="296.0" stroke="#d4af37" stroke-width="0.8" stroke-opacity="0.15200000000000002"/><line x1="433.0" y1="256.0" x2="420.0" y2="256.0" stroke="#d4af37" stroke-width="0.8" stroke-opacity="0.15200000000000002"/><path d="M256.00,434.00 L260.21,449.84 L274.38,441.62 L266.16,455.79 L282.00,460.00 L266.16,464.21 L274.38,478.38 L260.21,470.16 L256.00,486.00 L251.79,470.16 L237.62,478.38 L245.84,464.21 L230.00,460.00 L245.84,455.79 L237.62,441.62 L251.79,449.84 Z" fill="#d4af37" fill-opacity="0.38"/><path d="M269.7,423.2 L273.4,426.9 L269.7,430.5 L266.1,426.9 Z" fill="#d4af37" fill-opacity="0.20900000000000002"/><path d="M289.1,442.6 L292.8,446.3 L289.1,449.9 L285.5,446.3 Z" fill="#d4af37" fill-opacity="0.20900000000000002"/><path d="M289.1,470.1 L292.8,473.7 L289.1,477.4 L285.5,473.7 Z" fill="#d4af37" fill-opacity="0.20900000000000002"/><path d="M269.7,489.5 L273.4,493.1 L269.7,496.8 L266.1,493.1 Z" fill="#d4af37" fill-opacity="0.20900000000000002"/><path d="M242.3,489.5 L245.9,493.1 L242.3,496.8 L238.6,493.1 Z" fill="#d4af37" fill-opacity="0.20900000000000002"/><path d="M222.9,470.1 L226.5,473.7 L222.9,477.4 L219.2,473.7 Z" fill="#d4af37" fill-opacity="0.20900000000000002"/><path d="M222.9,442.6 L226.5,446.3 L222.9,449.9 L219.2,446.3 Z" fill="#d4af37" fill-opacity="0.20900000000000002"/><path d="M242.3,423.2 L245.9,426.9 L242.3,430.5 L238.6,426.9 Z" fill="#d4af37" fill-opacity="0.20900000000000002"/><line x1="256.0" y1="433.0" x2="256.0" y2="420.0" stroke="#d4af37" stroke-width="0.8" stroke-opacity="0.15200000000000002"/><line x1="283.0" y1="460.0" x2="296.0" y2="460.0" stroke="#d4af37" stroke-width="0.8" stroke-opacity="0.15200000000000002"/><line x1="256.0" y1="487.0" x2="256.0" y2="500.0" stroke="#d4af37" stroke-width="0.8" stroke-opacity="0.15200000000000002"/><line x1="229.0" y1="460.0" x2="216.0" y2="460.0" stroke="#d4af37" stroke-width="0.8" stroke-opacity="0.15200000000000002"/><path d="M52.00,230.00 L56.21,245.84 L70.38,237.62 L62.16,251.79 L78.00,256.00 L62.16,260.21 L70.38,274.38 L56.21,266.16 L52.00,282.00 L47.79,266.16 L33.62,274.38 L41.84,260.21 L26.00,256.00 L41.84,251.79 L33.62,237.62 L47.79,245.84 Z" fill="#d4af37" fill-opacity="0.38"/><path d="M65.7,219.2 L69.4,222.9 L65.7,226.5 L62.1,222.9 Z" fill="#d4af37" fill-opacity="0.20900000000000002"/><path d="M85.1,238.6 L88.8,242.3 L85.1,245.9 L81.5,242.3 Z" fill="#d4af37" fill-opacity="0.20900000000000002"/><path d="M85.1,266.1 L88.8,269.7 L85.1,273.4 L81.5,269.7 Z" fill="#d4af37" fill-opacity="0.20900000000000002"/><path d="M65.7,285.5 L69.4,289.1 L65.7,292.8 L62.1,289.1 Z" fill="#d4af37" fill-opacity="0.20900000000000002"/><path d="M38.3,285.5 L41.9,289.1 L38.3,292.8 L34.6,289.1 Z" fill="#d4af37" fill-opacity="0.20900000000000002"/><path d="M18.9,266.1 L22.5,269.7 L18.9,273.4 L15.2,269.7 Z" fill="#d4af37" fill-opacity="0.20900000000000002"/><path d="M18.9,238.6 L22.5,242.3 L18.9,245.9 L15.2,242.3 Z" fill="#d4af37" fill-opacity="0.20900000000000002"/><path d="M38.3,219.2 L41.9,222.9 L38.3,226.5 L34.6,222.9 Z" fill="#d4af37" fill-opacity="0.20900000000000002"/><line x1="52.0" y1="229.0" x2="52.0" y2="216.0" stroke="#d4af37" stroke-width="0.8" stroke-opacity="0.15200000000000002"/><line x1="79.0" y1="256.0" x2="92.0" y2="256.0" stroke="#d4af37" stroke-width="0.8" stroke-opacity="0.15200000000000002"/><line x1="52.0" y1="283.0" x2="52.0" y2="296.0" stroke="#d4af37" stroke-width="0.8" stroke-opacity="0.15200000000000002"/><line x1="25.0" y1="256.0" x2="12.0" y2="256.0" stroke="#d4af37" stroke-width="0.8" stroke-opacity="0.15200000000000002"/><path d="M44.00,135.00 L47.06,147.61 L58.14,140.86 L51.39,151.94 L64.00,155.00 L51.39,158.06 L58.14,169.14 L47.06,162.39 L44.00,175.00 L40.94,162.39 L29.86,169.14 L36.61,158.06 L24.00,155.00 L36.61,151.94 L29.86,140.86 L40.94,147.61 Z" fill="#d4af37" fill-opacity="0.28"/><path d="M54.6,126.7 L57.4,129.5 L54.6,132.3 L51.8,129.5 Z" fill="#d4af37" fill-opacity="0.15400000000000003"/><path d="M69.5,141.6 L72.3,144.4 L69.5,147.2 L66.7,144.4 Z" fill="#d4af37" fill-opacity="0.15400000000000003"/><path d="M69.5,162.8 L72.3,165.6 L69.5,168.4 L66.7,165.6 Z" fill="#d4af37" fill-opacity="0.15400000000000003"/><path d="M54.6,177.7 L57.4,180.5 L54.6,183.3 L51.8,180.5 Z" fill="#d4af37" fill-opacity="0.15400000000000003"/><path d="M33.4,177.7 L36.2,180.5 L33.4,183.3 L30.6,180.5 Z" fill="#d4af37" fill-opacity="0.15400000000000003"/><path d="M18.5,162.8 L21.3,165.6 L18.5,168.4 L15.7,165.6 Z" fill="#d4af37" fill-opacity="0.15400000000000003"/><path d="M18.5,141.6 L21.3,144.4 L18.5,147.2 L15.7,144.4 Z" fill="#d4af37" fill-opacity="0.15400000000000003"/><path d="M33.4,126.7 L36.2,129.5 L33.4,132.3 L30.6,129.5 Z" fill="#d4af37" fill-opacity="0.15400000000000003"/><line x1="44.0" y1="134.0" x2="44.0" y2="121.0" stroke="#d4af37" stroke-width="0.8" stroke-opacity="0.11200000000000002"/><line x1="65.0" y1="155.0" x2="78.0" y2="155.0" stroke="#d4af37" stroke-width="0.8" stroke-opacity="0.11200000000000002"/><line x1="44.0" y1="176.0" x2="44.0" y2="189.0" stroke="#d4af37" stroke-width="0.8" stroke-opacity="0.11200000000000002"/><line x1="23.0" y1="155.0" x2="10.0" y2="155.0" stroke="#d4af37" stroke-width="0.8" stroke-opacity="0.11200000000000002"/><path d="M155.00,24.00 L158.06,36.61 L169.14,29.86 L162.39,40.94 L175.00,44.00 L162.39,47.06 L169.14,58.14 L158.06,51.39 L155.00,64.00 L151.94,51.39 L140.86,58.14 L147.61,47.06 L135.00,44.00 L147.61,40.94 L140.86,29.86 L151.94,36.61 Z" fill="#d4af37" fill-opacity="0.28"/><path d="M165.6,15.7 L168.4,18.5 L165.6,21.3 L162.8,18.5 Z" fill="#d4af37" fill-opacity="0.15400000000000003"/><path d="M180.5,30.6 L183.3,33.4 L180.5,36.2 L177.7,33.4 Z" fill="#d4af37" fill-opacity="0.15400000000000003"/><path d="M180.5,51.8 L183.3,54.6 L180.5,57.4 L177.7,54.6 Z" fill="#d4af37" fill-opacity="0.15400000000000003"/><path d="M165.6,66.7 L168.4,69.5 L165.6,72.3 L162.8,69.5 Z" fill="#d4af37" fill-opacity="0.15400000000000003"/><path d="M144.4,66.7 L147.2,69.5 L144.4,72.3 L141.6,69.5 Z" fill="#d4af37" fill-opacity="0.15400000000000003"/><path d="M129.5,51.8 L132.3,54.6 L129.5,57.4 L126.7,54.6 Z" fill="#d4af37" fill-opacity="0.15400000000000003"/><path d="M129.5,30.6 L132.3,33.4 L129.5,36.2 L126.7,33.4 Z" fill="#d4af37" fill-opacity="0.15400000000000003"/><path d="M144.4,15.7 L147.2,18.5 L144.4,21.3 L141.6,18.5 Z" fill="#d4af37" fill-opacity="0.15400000000000003"/><line x1="155.0" y1="23.0" x2="155.0" y2="10.0" stroke="#d4af37" stroke-width="0.8" stroke-opacity="0.11200000000000002"/><line x1="176.0" y1="44.0" x2="189.0" y2="44.0" stroke="#d4af37" stroke-width="0.8" stroke-opacity="0.11200000000000002"/><line x1="155.0" y1="65.0" x2="155.0" y2="78.0" stroke="#d4af37" stroke-width="0.8" stroke-opacity="0.11200000000000002"/><line x1="134.0" y1="44.0" x2="121.0" y2="44.0" stroke="#d4af37" stroke-width="0.8" stroke-opacity="0.11200000000000002"/><path d="M468.00,135.00 L471.06,147.61 L482.14,140.86 L475.39,151.94 L488.00,155.00 L475.39,158.06 L482.14,169.14 L471.06,162.39 L468.00,175.00 L464.94,162.39 L453.86,169.14 L460.61,158.06 L448.00,155.00 L460.61,151.94 L453.86,140.86 L464.94,147.61 Z" fill="#d4af37" fill-opacity="0.28"/><path d="M478.6,126.7 L481.4,129.5 L478.6,132.3 L475.8,129.5 Z" fill="#d4af37" fill-opacity="0.15400000000000003"/><path d="M493.5,141.6 L496.3,144.4 L493.5,147.2 L490.7,144.4 Z" fill="#d4af37" fill-opacity="0.15400000000000003"/><path d="M493.5,162.8 L496.3,165.6 L493.5,168.4 L490.7,165.6 Z" fill="#d4af37" fill-opacity="0.15400000000000003"/><path d="M478.6,177.7 L481.4,180.5 L478.6,183.3 L475.8,180.5 Z" fill="#d4af37" fill-opacity="0.15400000000000003"/><path d="M457.4,177.7 L460.2,180.5 L457.4,183.3 L454.6,180.5 Z" fill="#d4af37" fill-opacity="0.15400000000000003"/><path d="M442.5,162.8 L445.3,165.6 L442.5,168.4 L439.7,165.6 Z" fill="#d4af37" fill-opacity="0.15400000000000003"/><path d="M442.5,141.6 L445.3,144.4 L442.5,147.2 L439.7,144.4 Z" fill="#d4af37" fill-opacity="0.15400000000000003"/><path d="M457.4,126.7 L460.2,129.5 L457.4,132.3 L454.6,129.5 Z" fill="#d4af37" fill-opacity="0.15400000000000003"/><line x1="468.0" y1="134.0" x2="468.0" y2="121.0" stroke="#d4af37" stroke-width="0.8" stroke-opacity="0.11200000000000002"/><line x1="489.0" y1="155.0" x2="502.0" y2="155.0" stroke="#d4af37" stroke-width="0.8" stroke-opacity="0.11200000000000002"/><line x1="468.0" y1="176.0" x2="468.0" y2="189.0" stroke="#d4af37" stroke-width="0.8" stroke-opacity="0.11200000000000002"/><line x1="447.0" y1="155.0" x2="434.0" y2="155.0" stroke="#d4af37" stroke-width="0.8" stroke-opacity="0.11200000000000002"/><path d="M357.00,24.00 L360.06,36.61 L371.14,29.86 L364.39,40.94 L377.00,44.00 L364.39,47.06 L371.14,58.14 L360.06,51.39 L357.00,64.00 L353.94,51.39 L342.86,58.14 L349.61,47.06 L337.00,44.00 L349.61,40.94 L342.86,29.86 L353.94,36.61 Z" fill="#d4af37" fill-opacity="0.28"/><path d="M367.6,15.7 L370.4,18.5 L367.6,21.3 L364.8,18.5 Z" fill="#d4af37" fill-opacity="0.15400000000000003"/><path d="M382.5,30.6 L385.3,33.4 L382.5,36.2 L379.7,33.4 Z" fill="#d4af37" fill-opacity="0.15400000000000003"/><path d="M382.5,51.8 L385.3,54.6 L382.5,57.4 L379.7,54.6 Z" fill="#d4af37" fill-opacity="0.15400000000000003"/><path d="M367.6,66.7 L370.4,69.5 L367.6,72.3 L364.8,69.5 Z" fill="#d4af37" fill-opacity="0.15400000000000003"/><path d="M346.4,66.7 L349.2,69.5 L346.4,72.3 L343.6,69.5 Z" fill="#d4af37" fill-opacity="0.15400000000000003"/><path d="M331.5,51.8 L334.3,54.6 L331.5,57.4 L328.7,54.6 Z" fill="#d4af37" fill-opacity="0.15400000000000003"/><path d="M331.5,30.6 L334.3,33.4 L331.5,36.2 L328.7,33.4 Z" fill="#d4af37" fill-opacity="0.15400000000000003"/><path d="M346.4,15.7 L349.2,18.5 L346.4,21.3 L343.6,18.5 Z" fill="#d4af37" fill-opacity="0.15400000000000003"/><line x1="357.0" y1="23.0" x2="357.0" y2="10.0" stroke="#d4af37" stroke-width="0.8" stroke-opacity="0.11200000000000002"/><line x1="378.0" y1="44.0" x2="391.0" y2="44.0" stroke="#d4af37" stroke-width="0.8" stroke-opacity="0.11200000000000002"/><line x1="357.0" y1="65.0" x2="357.0" y2="78.0" stroke="#d4af37" stroke-width="0.8" stroke-opacity="0.11200000000000002"/><line x1="336.0" y1="44.0" x2="323.0" y2="44.0" stroke="#d4af37" stroke-width="0.8" stroke-opacity="0.11200000000000002"/><path d="M44.00,337.00 L47.06,349.61 L58.14,342.86 L51.39,353.94 L64.00,357.00 L51.39,360.06 L58.14,371.14 L47.06,364.39 L44.00,377.00 L40.94,364.39 L29.86,371.14 L36.61,360.06 L24.00,357.00 L36.61,353.94 L29.86,342.86 L40.94,349.61 Z" fill="#d4af37" fill-opacity="0.28"/><path d="M54.6,328.7 L57.4,331.5 L54.6,334.3 L51.8,331.5 Z" fill="#d4af37" fill-opacity="0.15400000000000003"/><path d="M69.5,343.6 L72.3,346.4 L69.5,349.2 L66.7,346.4 Z" fill="#d4af37" fill-opacity="0.15400000000000003"/><path d="M69.5,364.8 L72.3,367.6 L69.5,370.4 L66.7,367.6 Z" fill="#d4af37" fill-opacity="0.15400000000000003"/><path d="M54.6,379.7 L57.4,382.5 L54.6,385.3 L51.8,382.5 Z" fill="#d4af37" fill-opacity="0.15400000000000003"/><path d="M33.4,379.7 L36.2,382.5 L33.4,385.3 L30.6,382.5 Z" fill="#d4af37" fill-opacity="0.15400000000000003"/><path d="M18.5,364.8 L21.3,367.6 L18.5,370.4 L15.7,367.6 Z" fill="#d4af37" fill-opacity="0.15400000000000003"/><path d="M18.5,343.6 L21.3,346.4 L18.5,349.2 L15.7,346.4 Z" fill="#d4af37" fill-opacity="0.15400000000000003"/><path d="M33.4,328.7 L36.2,331.5 L33.4,334.3 L30.6,331.5 Z" fill="#d4af37" fill-opacity="0.15400000000000003"/><line x1="44.0" y1="336.0" x2="44.0" y2="323.0" stroke="#d4af37" stroke-width="0.8" stroke-opacity="0.11200000000000002"/><line x1="65.0" y1="357.0" x2="78.0" y2="357.0" stroke="#d4af37" stroke-width="0.8" stroke-opacity="0.11200000000000002"/><line x1="44.0" y1="378.0" x2="44.0" y2="391.0" stroke="#d4af37" stroke-width="0.8" stroke-opacity="0.11200000000000002"/><line x1="23.0" y1="357.0" x2="10.0" y2="357.0" stroke="#d4af37" stroke-width="0.8" stroke-opacity="0.11200000000000002"/><path d="M155.00,448.00 L158.06,460.61 L169.14,453.86 L162.39,464.94 L175.00,468.00 L162.39,471.06 L169.14,482.14 L158.06,475.39 L155.00,488.00 L151.94,475.39 L140.86,482.14 L147.61,471.06 L135.00,468.00 L147.61,464.94 L140.86,453.86 L151.94,460.61 Z" fill="#d4af37" fill-opacity="0.28"/><path d="M165.6,439.7 L168.4,442.5 L165.6,445.3 L162.8,442.5 Z" fill="#d4af37" fill-opacity="0.15400000000000003"/><path d="M180.5,454.6 L183.3,457.4 L180.5,460.2 L177.7,457.4 Z" fill="#d4af37" fill-opacity="0.15400000000000003"/><path d="M180.5,475.8 L183.3,478.6 L180.5,481.4 L177.7,478.6 Z" fill="#d4af37" fill-opacity="0.15400000000000003"/><path d="M165.6,490.7 L168.4,493.5 L165.6,496.3 L162.8,493.5 Z" fill="#d4af37" fill-opacity="0.15400000000000003"/><path d="M144.4,490.7 L147.2,493.5 L144.4,496.3 L141.6,493.5 Z" fill="#d4af37" fill-opacity="0.15400000000000003"/><path d="M129.5,475.8 L132.3,478.6 L129.5,481.4 L126.7,478.6 Z" fill="#d4af37" fill-opacity="0.15400000000000003"/><path d="M129.5,454.6 L132.3,457.4 L129.5,460.2 L126.7,457.4 Z" fill="#d4af37" fill-opacity="0.15400000000000003"/><path d="M144.4,439.7 L147.2,442.5 L144.4,445.3 L141.6,442.5 Z" fill="#d4af37" fill-opacity="0.15400000000000003"/><line x1="155.0" y1="447.0" x2="155.0" y2="434.0" stroke="#d4af37" stroke-width="0.8" stroke-opacity="0.11200000000000002"/><line x1="176.0" y1="468.0" x2="189.0" y2="468.0" stroke="#d4af37" stroke-width="0.8" stroke-opacity="0.11200000000000002"/><line x1="155.0" y1="489.0" x2="155.0" y2="502.0" stroke="#d4af37" stroke-width="0.8" stroke-opacity="0.11200000000000002"/><line x1="134.0" y1="468.0" x2="121.0" y2="468.0" stroke="#d4af37" stroke-width="0.8" stroke-opacity="0.11200000000000002"/><path d="M468.00,337.00 L471.06,349.61 L482.14,342.86 L475.39,353.94 L488.00,357.00 L475.39,360.06 L482.14,371.14 L471.06,364.39 L468.00,377.00 L464.94,364.39 L453.86,371.14 L460.61,360.06 L448.00,357.00 L460.61,353.94 L453.86,342.86 L464.94,349.61 Z" fill="#d4af37" fill-opacity="0.28"/><path d="M478.6,328.7 L481.4,331.5 L478.6,334.3 L475.8,331.5 Z" fill="#d4af37" fill-opacity="0.15400000000000003"/><path d="M493.5,343.6 L496.3,346.4 L493.5,349.2 L490.7,346.4 Z" fill="#d4af37" fill-opacity="0.15400000000000003"/><path d="M493.5,364.8 L496.3,367.6 L493.5,370.4 L490.7,367.6 Z" fill="#d4af37" fill-opacity="0.15400000000000003"/><path d="M478.6,379.7 L481.4,382.5 L478.6,385.3 L475.8,382.5 Z" fill="#d4af37" fill-opacity="0.15400000000000003"/><path d="M457.4,379.7 L460.2,382.5 L457.4,385.3 L454.6,382.5 Z" fill="#d4af37" fill-opacity="0.15400000000000003"/><path d="M442.5,364.8 L445.3,367.6 L442.5,370.4 L439.7,367.6 Z" fill="#d4af37" fill-opacity="0.15400000000000003"/><path d="M442.5,343.6 L445.3,346.4 L442.5,349.2 L439.7,346.4 Z" fill="#d4af37" fill-opacity="0.15400000000000003"/><path d="M457.4,328.7 L460.2,331.5 L457.4,334.3 L454.6,331.5 Z" fill="#d4af37" fill-opacity="0.15400000000000003"/><line x1="468.0" y1="336.0" x2="468.0" y2="323.0" stroke="#d4af37" stroke-width="0.8" stroke-opacity="0.11200000000000002"/><line x1="489.0" y1="357.0" x2="502.0" y2="357.0" stroke="#d4af37" stroke-width="0.8" stroke-opacity="0.11200000000000002"/><line x1="468.0" y1="378.0" x2="468.0" y2="391.0" stroke="#d4af37" stroke-width="0.8" stroke-opacity="0.11200000000000002"/><line x1="447.0" y1="357.0" x2="434.0" y2="357.0" stroke="#d4af37" stroke-width="0.8" stroke-opacity="0.11200000000000002"/><path d="M357.00,448.00 L360.06,460.61 L371.14,453.86 L364.39,464.94 L377.00,468.00 L364.39,471.06 L371.14,482.14 L360.06,475.39 L357.00,488.00 L353.94,475.39 L342.86,482.14 L349.61,471.06 L337.00,468.00 L349.61,464.94 L342.86,453.86 L353.94,460.61 Z" fill="#d4af37" fill-opacity="0.28"/><path d="M367.6,439.7 L370.4,442.5 L367.6,445.3 L364.8,442.5 Z" fill="#d4af37" fill-opacity="0.15400000000000003"/><path d="M382.5,454.6 L385.3,457.4 L382.5,460.2 L379.7,457.4 Z" fill="#d4af37" fill-opacity="0.15400000000000003"/><path d="M382.5,475.8 L385.3,478.6 L382.5,481.4 L379.7,478.6 Z" fill="#d4af37" fill-opacity="0.15400000000000003"/><path d="M367.6,490.7 L370.4,493.5 L367.6,496.3 L364.8,493.5 Z" fill="#d4af37" fill-opacity="0.15400000000000003"/><path d="M346.4,490.7 L349.2,493.5 L346.4,496.3 L343.6,493.5 Z" fill="#d4af37" fill-opacity="0.15400000000000003"/><path d="M331.5,475.8 L334.3,478.6 L331.5,481.4 L328.7,478.6 Z" fill="#d4af37" fill-opacity="0.15400000000000003"/><path d="M331.5,454.6 L334.3,457.4 L331.5,460.2 L328.7,457.4 Z" fill="#d4af37" fill-opacity="0.15400000000000003"/><path d="M346.4,439.7 L349.2,442.5 L346.4,445.3 L343.6,442.5 Z" fill="#d4af37" fill-opacity="0.15400000000000003"/><line x1="357.0" y1="447.0" x2="357.0" y2="434.0" stroke="#d4af37" stroke-width="0.8" stroke-opacity="0.11200000000000002"/><line x1="378.0" y1="468.0" x2="391.0" y2="468.0" stroke="#d4af37" stroke-width="0.8" stroke-opacity="0.11200000000000002"/><line x1="357.0" y1="489.0" x2="357.0" y2="502.0" stroke="#d4af37" stroke-width="0.8" stroke-opacity="0.11200000000000002"/><line x1="336.0" y1="468.0" x2="323.0" y2="468.0" stroke="#d4af37" stroke-width="0.8" stroke-opacity="0.11200000000000002"/>
  <rect x="6" y="6" width="500" height="500" fill="none" stroke="#d4af37" stroke-width="0.5" stroke-opacity="0.22"/>
  
<path d="M18,52 L18,18 L52,18" fill="none" stroke="#d4af37" stroke-width="1.4" stroke-opacity="0.5" stroke-linecap="square"/>
<path d="M460,18 L494,18 L494,52" fill="none" stroke="#d4af37" stroke-width="1.4" stroke-opacity="0.5" stroke-linecap="square"/>
<path d="M494,460 L494,494 L460,494" fill="none" stroke="#d4af37" stroke-width="1.4" stroke-opacity="0.5" stroke-linecap="square"/>
<path d="M52,494 L18,494 L18,460" fill="none" stroke="#d4af37" stroke-width="1.4" stroke-opacity="0.5" stroke-linecap="square"/>

  <circle cx="256" cy="256" r="192" fill="none" stroke="#d4af37" stroke-width="1.8" stroke-opacity="0.72"/>
  <line x1="437.0" y1="256.0" x2="448.0" y2="256.0" stroke="#d4af37" stroke-width="0.9" stroke-opacity="0.5"/><line x1="430.8" y1="302.8" x2="441.5" y2="305.7" stroke="#d4af37" stroke-width="0.9" stroke-opacity="0.5"/><line x1="412.8" y1="346.5" x2="422.3" y2="352.0" stroke="#d4af37" stroke-width="0.9" stroke-opacity="0.5"/><line x1="384.0" y1="384.0" x2="391.8" y2="391.8" stroke="#d4af37" stroke-width="0.9" stroke-opacity="0.5"/><line x1="346.5" y1="412.8" x2="352.0" y2="422.3" stroke="#d4af37" stroke-width="0.9" stroke-opacity="0.5"/><line x1="302.8" y1="430.8" x2="305.7" y2="441.5" stroke="#d4af37" stroke-width="0.9" stroke-opacity="0.5"/><line x1="256.0" y1="437.0" x2="256.0" y2="448.0" stroke="#d4af37" stroke-width="0.9" stroke-opacity="0.5"/><line x1="209.2" y1="430.8" x2="206.3" y2="441.5" stroke="#d4af37" stroke-width="0.9" stroke-opacity="0.5"/><line x1="165.5" y1="412.8" x2="160.0" y2="422.3" stroke="#d4af37" stroke-width="0.9" stroke-opacity="0.5"/><line x1="128.0" y1="384.0" x2="120.2" y2="391.8" stroke="#d4af37" stroke-width="0.9" stroke-opacity="0.5"/><line x1="99.2" y1="346.5" x2="89.7" y2="352.0" stroke="#d4af37" stroke-width="0.9" stroke-opacity="0.5"/><line x1="81.2" y1="302.8" x2="70.5" y2="305.7" stroke="#d4af37" stroke-width="0.9" stroke-opacity="0.5"/><line x1="75.0" y1="256.0" x2="64.0" y2="256.0" stroke="#d4af37" stroke-width="0.9" stroke-opacity="0.5"/><line x1="81.2" y1="209.2" x2="70.5" y2="206.3" stroke="#d4af37" stroke-width="0.9" stroke-opacity="0.5"/><line x1="99.2" y1="165.5" x2="89.7" y2="160.0" stroke="#d4af37" stroke-width="0.9" stroke-opacity="0.5"/><line x1="128.0" y1="128.0" x2="120.2" y2="120.2" stroke="#d4af37" stroke-width="0.9" stroke-opacity="0.5"/><line x1="165.5" y1="99.2" x2="160.0" y2="89.7" stroke="#d4af37" stroke-width="0.9" stroke-opacity="0.5"/><line x1="209.2" y1="81.2" x2="206.3" y2="70.5" stroke="#d4af37" stroke-width="0.9" stroke-opacity="0.5"/><line x1="256.0" y1="75.0" x2="256.0" y2="64.0" stroke="#d4af37" stroke-width="0.9" stroke-opacity="0.5"/><line x1="302.8" y1="81.2" x2="305.7" y2="70.5" stroke="#d4af37" stroke-width="0.9" stroke-opacity="0.5"/><line x1="346.5" y1="99.2" x2="352.0" y2="89.7" stroke="#d4af37" stroke-width="0.9" stroke-opacity="0.5"/><line x1="384.0" y1="128.0" x2="391.8" y2="120.2" stroke="#d4af37" stroke-width="0.9" stroke-opacity="0.5"/><line x1="412.8" y1="165.5" x2="422.3" y2="160.0" stroke="#d4af37" stroke-width="0.9" stroke-opacity="0.5"/><line x1="430.8" y1="209.2" x2="441.5" y2="206.3" stroke="#d4af37" stroke-width="0.9" stroke-opacity="0.5"/>
  <path d="M442.5,252.0 L446.5,256.0 L442.5,260.0 L438.5,256.0 Z" fill="#d4af37" fill-opacity="0.85"/><path d="M387.9,383.9 L391.9,387.9 L387.9,391.9 L383.9,387.9 Z" fill="#d4af37" fill-opacity="0.85"/><path d="M256.0,438.5 L260.0,442.5 L256.0,446.5 L252.0,442.5 Z" fill="#d4af37" fill-opacity="0.85"/><path d="M124.1,383.9 L128.1,387.9 L124.1,391.9 L120.1,387.9 Z" fill="#d4af37" fill-opacity="0.85"/><path d="M69.5,252.0 L73.5,256.0 L69.5,260.0 L65.5,256.0 Z" fill="#d4af37" fill-opacity="0.85"/><path d="M124.1,120.1 L128.1,124.1 L124.1,128.1 L120.1,124.1 Z" fill="#d4af37" fill-opacity="0.85"/><path d="M256.0,65.5 L260.0,69.5 L256.0,73.5 L252.0,69.5 Z" fill="#d4af37" fill-opacity="0.85"/><path d="M387.9,120.1 L391.9,124.1 L387.9,128.1 L383.9,124.1 Z" fill="#d4af37" fill-opacity="0.85"/>
  <circle cx="256" cy="256" r="180" fill="none" stroke="#d4af37" stroke-width="0.7" stroke-opacity="0.5"/>
  <circle cx="256" cy="256" r="180" fill="#091826"/>
  <circle cx="256" cy="256" r="162" fill="none" stroke="#d4af37" stroke-width="0.5" stroke-opacity="0.18"/>
  <text x="258" y="264"
        font-family="Amiri,serif"
        font-size="208"
        fill="#d4af37"
        fill-opacity="0.96"
        text-anchor="middle"
        dominant-baseline="middle">&#x646;&#x6CC;</text>
  <g fill="#d4af37" fill-opacity="0.38">
    <circle cx="247" cy="398" r="2.6"/>
    <circle cx="256" cy="398" r="2.6"/>
    <circle cx="265" cy="398" r="2.6"/>
  </g>
</svg>